<svg xmlns="http://www.w3.org/2000/svg" viewBox="-78.977 -122.75 433.957 466.644"><path d="M.001 110.573q0 3.714 2.857 6.572l133.143 133.143q2.857 2.857 6.571 2.857 3.714 0 6.572-2.857l14.286-14.286q2.857-2.857 2.857-6.571 0-3.714-2.857-6.572L51.145 110.573 163.43-1.713q2.857-2.857 2.857-6.572t-2.857-6.572l-14.286-14.286Q146.287-32 142.572-32T136-29.143L2.857 104Q0 106.857 0 110.572zm109.715 0q0 3.714 2.857 6.572l133.143 133.143q2.857 2.857 6.572 2.857t6.572-2.857l14.286-14.286q2.857-2.857 2.857-6.571 0-3.714-2.857-6.572L160.86 110.573 273.146-1.713q2.857-2.857 2.857-6.572t-2.857-6.572L258.86-29.143Q256.003-32 252.288-32t-6.572 2.857L112.573 104q-2.857 2.857-2.857 6.572z"/></svg>