<svg xmlns="http://www.w3.org/2000/svg" viewBox="-146.158 -187.664 803.097 823.328"><path d="M226.115 73.358c-4.78-.21-16.621 16.611-19.904 19.904-6.887 6.882-13.411 12.657-19.91 18.668 28.305 33.12 62.969 62.67 94.544 97.031 2.985 3.241 13.647 12.832 13.683 13.673.226 5.215-22.503 23.755-27.37 28.612-27.181 27.196-55.818 55.593-80.856 83.348 6.57 6.088 13.077 11.826 19.909 18.662 2.467 2.457 14.273 19.714 18.662 19.904 2.195.087 13.78-13.79 18.647-18.667 41.653-41.648 94.528-92.718 130.612-130.622-32.401-36.433-89.492-90.748-130.612-131.863-3.76-3.754-15.662-18.555-17.406-18.647zM61.922 393.062c39.525 46.12 95.092 79.501 169.157 85.825 87.86 7.493 147.453-23.935 191.573-60.962 42.643-35.776 80.968-96.072 87.076-170.413C519.98 122.552 453.904 41.183 375.383-1.28c-27.54-14.893-60.305-26.97-97.025-29.837-83.753-6.549-145.843 24.191-191.564 63.444C40.597 71.97 7.184 125.655.964 201.49-5.79 283.662 23.842 348.645 61.92 393.062zM48.234 223.874c.374-113.862 89.87-206.867 207.733-206.493 66.593.216 112.928 29.576 146.792 63.444 34.222 34.207 63.316 88.697 58.459 154.25-2.538 34.406-9.57 57.304-21.15 80.855-31.156 63.377-91.527 115.975-185.347 115.683-64.265-.2-111.595-27.002-145.53-60.947-35.802-35.787-61.167-85.553-60.957-146.792z"/></svg>