<svg xmlns="http://www.w3.org/2000/svg" viewBox="-146.158 -187.665 803.1 823.335"><path d="M284.667 374.631c4.777.216 16.618-16.609 19.904-19.894 6.889-6.885 13.404-12.651 19.909-18.664-28.301-33.12-62.969-62.666-94.54-97.026-2.988-3.245-13.645-12.841-13.681-13.677-.226-5.213 22.504-23.749 27.368-28.614 27.183-27.193 55.822-55.592 80.853-83.35-6.567-6.089-13.077-11.831-19.909-18.664-2.466-2.455-14.276-19.715-18.669-19.904-2.189-.087-13.779 13.789-18.644 18.664-41.654 41.644-94.524 92.715-130.612 130.622 32.402 36.436 89.496 90.752 130.612 131.863 3.762 3.762 15.665 18.567 17.408 18.644zM448.86 54.94c-39.527-46.119-95.088-79.51-169.155-85.826C191.84-38.381 132.249-6.948 88.124 30.078 45.48 65.852 7.158 126.15 1.053 200.494-9.199 325.446 56.875 406.817 135.402 449.287c27.548 14.886 60.308 26.963 97.026 29.834 83.755 6.551 145.846-24.185 191.565-63.44 46.196-39.645 79.608-93.335 85.826-169.165 6.756-82.181-22.877-147.159-60.959-191.576zm13.691 169.185c-.374 113.854-89.87 206.867-207.738 206.493-66.593-.216-112.927-29.582-146.79-63.45-34.221-34.206-63.312-88.686-58.458-154.238 2.538-34.416 9.571-57.309 21.15-80.853C101.866 68.688 162.24 16.09 256.062 16.387c64.266.2 111.594 27.009 145.534 60.954 35.795 35.785 61.159 85.548 60.954 146.785z"/></svg>