<svg xmlns="http://www.w3.org/2000/svg" viewBox="-146.507 -187.663 805.013 823.327"><path d="M512 223.999L256 480V320H.001L0 128h256V-32zm-76-30.745l-8-8v77.49l8-8zm8 53.49l8-8v-29.49l-8-8zm-24-69.49l-8-8v109.491l8-8zm-16-16l-8-8v141.491l8-8zm-16-16l-8-8v173.491l8-8zm-16-16l-8-7.999v205.49l8-8zm-16-15.999l-8-8v237.49l8-8zm-16-16l-8-8v269.49l8-8zm-16-16l-8-8v301.49l8-8zm-16-16l-8-8v333.49l8-8zm152 151.999v13.49l6.745-6.745zM276 288V160h-8v128zm-16 0V160h-8v128zm-16 0V160h-8v128zm-16 0V160h-8v128zm-16 0V160h-8v128zm-16 0V160h-8v128zm-16 0V160h-8v128zm-16 0V160h-8v128zm-16 0V160h-8v128zm-16 0V160h-8v128zm-16 0V160h-8v128zm-16 0V160h-8v128zm-16 0V160h-8v128zm-16 0V160h-8v128zm-16 0V160h-8v128zm-19.999 0H36V160h-4zM288 160h-4v128h4v114.745l4-4V49.255l-4-4z"/></svg>