<svg xmlns="http://www.w3.org/2000/svg" viewBox="-146.507 -187.663 805.013 823.327"><path d="M256 480C114.615 480 0 365.385 0 224S114.615-32 256-32 512 82.615 512 224 397.385 480 256 480zm0-464C141.125 16 48 109.125 48 224s93.125 208 208 208 208-93.125 208-208S370.875 16 256 16zm150.628 230.627l-128.001 128c-12.496 12.497-32.757 12.497-45.254 0s-12.497-32.758 0-45.255L306.745 256H128c-17.673 0-32-14.327-32-32 0-17.673 14.327-32 32-32h178.745l-73.373-73.372c-12.497-12.497-12.497-32.759 0-45.256C239.621 67.124 247.811 64 256 64s16.379 3.124 22.627 9.372l128.001 128c12.496 12.497 12.496 32.759 0 45.255z"/></svg>