<svg xmlns="http://www.w3.org/2000/svg" viewBox="-122.743 -179.25 674.441 777.095"><path d="M408.474 345.035L234.957 445.182c-12.442 7.219-28.518 7.219-40.96 0L20.48 345.035C7.833 337.713 0 324.146 0 309.554V109.157c0-14.592 7.834-28.16 20.48-35.481L193.997-26.471c6.195-3.635 13.312-5.529 20.48-5.529 7.168 0 14.285 1.894 20.48 5.529L408.474 73.676c12.647 7.322 20.48 20.889 20.48 35.481v200.397c0 14.592-7.834 28.16-20.48 35.481zm0-235.879c0-7.271-3.891-14.08-10.24-17.715L224.717-8.757c-6.195-3.584-14.285-3.584-20.48 0L30.72 91.441c-6.349 3.635-10.24 10.445-10.24 17.715v200.397c0 7.27 3.891 14.08 10.24 17.715l173.517 100.198c3.123 1.792 6.656 2.765 10.24 2.765 3.584 0 7.117-.973 10.24-2.765l173.517-100.198c6.349-3.635 10.24-10.445 10.24-17.715zm-76.237 100.199l-81.92-81.92-15.36 15.36 56.32 56.32H96.717v20.48h194.56l-56.32 56.32 15.36 15.36z"/></svg>