<svg xmlns="http://www.w3.org/2000/svg" viewBox="-146.507 -187.663 805.013 823.327"><path d="M0 224.001L256-32v160h255.999L512 320H256v160zm76 30.745l8 8v-77.49l-8 8zm-8-53.49l-8 8v29.49l8 8zm24 69.49l8 8V169.255l-8 8zm16 16l8 8V153.255l-8 8zm16 16l8 8V137.255l-8 8zm16 16l8 7.999v-205.49l-8 8zm16 15.999l8 8v-237.49l-8 8zm16 16l8 8V89.255l-8 8zm16 16l8 8V73.255l-8 8zm16 16l8 8V57.255l-8 8zM52 230.746v-13.49l-6.745 6.745zM236 160v128h8V160zm16 0v128h8V160zm16 0v128h8V160zm16 0v128h8V160zm16 0v128h8V160zm16 0v128h8V160zm16 0v128h8V160zm16 0v128h8V160zm16 0v128h8V160zm16 0v128h8V160zm16 0v128h8V160zm16 0v128h8V160zm16 0v128h8V160zm16 0v128h8V160zm16 0v128h8V160zm19.999 0H476v128h4zM224 288h4V160h-4V45.255l-4 4v349.49l4 4z"/></svg>