<svg xmlns="http://www.w3.org/2000/svg" viewBox="-146.507 -187.663 805.013 823.327"><path d="M256 480c141.385 0 256-114.615 256-256S397.385-32 256-32 0 82.615 0 224s114.615 256 256 256zm0-464c114.875 0 208 93.125 208 208s-93.125 208-208 208S48 338.875 48 224 141.125 16 256 16zM105.372 246.627l128.001 128c12.496 12.497 32.757 12.497 45.254 0s12.497-32.758 0-45.255L205.255 256H384c17.673 0 32-14.327 32-32 0-17.673-14.327-32-32-32H205.255l73.373-73.372c12.497-12.497 12.497-32.759 0-45.256C272.379 67.124 264.189 64 256 64s-16.379 3.124-22.627 9.372l-128.001 128c-12.496 12.497-12.496 32.759 0 45.255z"/></svg>