<svg xmlns="http://www.w3.org/2000/svg" viewBox="-120.345 -168.532 661.262 718.205"><path d="M0 190.57q0 14.857 10.572 26l186 185.714q10.857 10.857 26 10.857 14.857 0 25.714-10.857l21.428-21.143q10.857-10.857 10.857-26t-10.857-26L186 245.427h201.143q14.857 0 24.143-10.714 9.286-10.714 9.286-25.857v-36.571q0-15.143-9.286-25.857-9.286-10.714-24.143-10.714H186l83.715-84Q280.572 41.428 280.572 26q0-15.428-10.857-25.714l-21.428-21.714Q237.715-32 222.573-32q-14.857 0-26 10.572l-186 186.286Q.001 175.43.001 190.572z"/></svg>