<svg xmlns="http://www.w3.org/2000/svg" viewBox="-143.829 -155.18 790.298 644.839"><path d="M353.987 167.229c0 16.619 13.517 30.085 30.137 30.085 16.548 0 30.085-13.456 30.085-30.085 0-16.599-13.527-30.065-30.085-30.065-16.61 0-30.137 13.466-30.137 30.065zm-176.977 0c0 16.619 13.517 30.085 30.075 30.085 16.65 0 30.085-13.456 30.085-30.085 0-16.599-13.435-30.065-30.085-30.065-16.558 0-30.075 13.466-30.075 30.065zm-28.355 0c0-16.615-13.47-30.085-30.085-30.085-16.615 0-30.085 13.469-30.085 30.085 0 16.615 13.469 30.085 30.085 30.085s30.085-13.47 30.085-30.085zm-88.505 0c0-16.61-13.465-30.075-30.075-30.075S0 150.619 0 167.229s13.465 30.075 30.075 30.075 30.075-13.465 30.075-30.075zm442.491 0c0-16.593-13.451-30.044-30.044-30.044s-30.044 13.451-30.044 30.044 13.451 30.044 30.044 30.044 30.044-13.451 30.044-30.044zM353.987 80.691c0 16.62 13.517 30.096 30.137 30.096 16.548 0 30.085-13.476 30.085-30.096 0-16.62-13.527-30.085-30.085-30.085-16.61 0-30.137 13.466-30.137 30.085zm0 169.697c0 16.64 13.517 30.075 30.137 30.075 16.548 0 30.085-13.435 30.085-30.075 0-16.61-13.527-30.085-30.085-30.085-16.61.01-30.137 13.476-30.137 30.085zm-88.463-83.159c0 16.619 13.456 30.085 30.044 30.085 16.62 0 30.116-13.456 30.116-30.085 0-16.599-13.497-30.065-30.116-30.065-16.589 0-30.044 13.466-30.044 30.065zm0-169.144c0 16.599 13.456 30.065 30.044 30.065 16.62 0 30.116-13.455 30.116-30.065 0-16.62-13.497-30.085-30.116-30.085-16.589.01-30.044 13.466-30.044 30.085zm0 84.562c0 16.62 13.456 30.085 30.044 30.085 16.62 0 30.116-13.455 30.116-30.085 0-16.589-13.497-30.065-30.116-30.065-16.589.01-30.044 13.476-30.044 30.065zm0 253.757c0 16.619 13.456 30.075 30.044 30.075 16.62 0 30.116-13.445 30.116-30.075s-13.497-30.085-30.116-30.085c-16.589 0-30.044 13.455-30.044 30.085zm0-84.583c0 16.61 13.456 30.085 30.044 30.085 16.62 0 30.116-13.476 30.116-30.085s-13.497-30.064-30.116-30.064c-16.589 0-30.044 13.455-30.044 30.064z"/></svg>