<svg xmlns="http://www.w3.org/2000/svg" viewBox="-125.577 -166.733 690.01 708.323"><path d="M0 187.428q0 59.714 29.428 110.143t79.857 79.857q50.429 29.428 110.143 29.428t110.143-29.428Q380 348 409.428 297.571q29.428-50.429 29.428-110.143T409.428 77.285Q380 26.856 329.571-2.572 279.142-32 219.428-32T109.285-2.572Q58.856 26.856 29.428 77.285 0 127.714 0 187.428zm64 0q0-42.286 20.857-78t56.572-56.572q35.715-20.858 78-20.857 42.285.001 78 20.857 35.715 20.856 56.572 56.572t20.857 78q0 42.284-20.857 78T297.429 322q-35.715 20.856-78 20.857-42.285.001-78-20.857t-56.572-56.572Q64 229.714 64 187.428zm45.715 0q0 4 2.571 6.572l91.429 91.428q2.571 2.571 6.572 2.571 3.714 0 6.428-2.714t2.714-6.428V224h100.572q3.714 0 6.428-2.714t2.714-6.428v-54.857q0-3.714-2.714-6.428t-6.428-2.714H219.429V96.002q0-4-2.571-6.572t-6.571-2.572q-3.429 0-6.857 2.857l-91.143 91.143q-2.571 2.572-2.571 6.572z"/></svg>