<svg xmlns="http://www.w3.org/2000/svg" viewBox="-143.829 -155.18 790.298 644.84"><path d="M148.635 167.23c0-16.61-13.465-30.106-30.075-30.106-16.569 0-30.055 13.497-30.055 30.106 0 16.619 13.476 30.075 30.055 30.075 16.599 0 30.075-13.456 30.075-30.075zm177.028 0c0-16.61-13.476-30.106-30.096-30.106-16.599 0-30.065 13.497-30.065 30.106 0 16.619 13.455 30.075 30.065 30.075s30.096-13.456 30.096-30.075zm88.464 0c0-16.61-13.465-30.075-30.075-30.075s-30.075 13.465-30.075 30.075 13.465 30.075 30.075 30.075 30.075-13.465 30.075-30.075zm88.514 0c0-16.61-13.465-30.075-30.075-30.075s-30.075 13.465-30.075 30.075 13.465 30.075 30.075 30.075 30.075-13.465 30.075-30.075zm-442.491 0c0-16.61-13.465-30.075-30.075-30.075S0 150.62 0 167.23s13.465 30.075 30.075 30.075S60.15 183.84 60.15 167.23zm88.485 86.558c0-16.599-13.465-30.085-30.075-30.085-16.569 0-30.055 13.486-30.055 30.085 0 16.64 13.476 30.054 30.055 30.054 16.599 0 30.075-13.414 30.075-30.054zm0-169.697c0-16.599-13.465-30.065-30.075-30.065-16.569 0-30.055 13.455-30.055 30.065 0 16.62 13.476 30.075 30.055 30.075 16.599-.01 30.075-13.455 30.075-30.075zm88.473 83.139c0-16.61-13.435-30.106-30.023-30.106-16.63 0-30.106 13.497-30.106 30.106 0 16.619 13.476 30.075 30.106 30.075 16.599 0 30.024-13.456 30.024-30.075zm0 169.185c0-16.63-13.435-30.075-30.023-30.075-16.63 0-30.106 13.445-30.106 30.075 0 16.599 13.476 30.065 30.106 30.065 16.599-.01 30.024-13.466 30.024-30.065zm0-84.623c0-16.569-13.435-30.034-30.023-30.034-16.63 0-30.106 13.455-30.106 30.034 0 16.63 13.476 30.106 30.106 30.106 16.599 0 30.024-13.476 30.024-30.106zm0-253.727c0-16.599-13.435-30.065-30.023-30.065-16.63 0-30.106 13.456-30.106 30.065s13.476 30.085 30.106 30.085c16.599 0 30.024-13.476 30.024-30.085zm0 84.583c0-16.599-13.435-30.065-30.023-30.065-16.63 0-30.106 13.455-30.106 30.065 0 16.62 13.476 30.055 30.106 30.055 16.599 0 30.024-13.435 30.024-30.055z"/></svg>