<svg xmlns="http://www.w3.org/2000/svg" viewBox="-125.577 -166.733 690.01 708.323"><path d="M0 187.428q0 59.714 29.428 110.143t79.857 79.857q50.429 29.428 110.143 29.428t110.143-29.428Q380 348 409.428 297.571q29.428-50.429 29.428-110.143T409.428 77.285Q380 26.856 329.571-2.572 279.142-32 219.428-32T109.285-2.572Q58.856 26.856 29.428 77.285 0 127.714 0 187.428zm98.857 0q0-7.428 5.428-12.857L233.999 44.857q5.428-5.428 12.857-5.428 7.429 0 12.857 5.428L288.856 74q5.428 5.428 5.428 12.857 0 7.429-5.428 12.857l-87.714 87.714 87.714 87.714q5.428 5.428 5.428 12.857 0 7.429-5.428 12.857l-29.143 29.143q-5.428 5.428-12.857 5.428-7.429 0-12.857-5.428L104.285 200.285q-5.428-5.428-5.428-12.857z"/></svg>