<svg xmlns="http://www.w3.org/2000/svg" viewBox="-146.507 -166.734 805.016 708.325"><path d="M.005 41.142v182.857q0 15.143 10.714 25.857 10.714 10.714 25.857 10.714h82.285q2.857 0 6.143 1.286 3.286 1.286 6.714 4 3.428 2.714 6.428 5.143t6.857 6.429q3.857 4 5.857 6.143t5.428 6.143q3.428 4 4 4.857 18.572 21.143 28.572 36.857 3.714 6 9.428 17.714 5.714 11.714 10.572 20.572 4.858 8.858 11.572 18 6.714 9.142 15.714 14.143 9 5.001 19.857 5 35.715 0 59-19.143 23.285-19.143 23.286-54 0-19.428-6.286-36.572H438.86q29.714 0 51.428-21.714t21.714-51.143q0-30-21.572-51.714t-51.572-21.714h-48.286q-1.143-17.714-10.572-34 .857-6 .857-12.286 0-28.857-17.143-50.857Q364 14 339.428-9q-24.572-23-64.857-23-38 0-92 19.714-46.857 16.857-63.715 16.857H36.571q-15.143 0-25.857 10.714Q0 25.999 0 41.142zm36.572 18.286q0-7.428 5.428-12.857 5.428-5.429 12.857-5.428 7.429.001 12.857 5.428 5.428 5.427 5.428 12.857t-5.428 12.857q-5.428 5.427-12.857 5.428-7.429.001-12.857-5.428-5.428-5.429-5.428-12.857zm73.143-18.286h9.143q20.572 0 47.715-9.143 27.143-9.143 55.286-18.286T273.15 4.57q54 0 54 47.714 0 7.428-1.428 16 8.572 4.572 13.572 15t5 21q0 10.572-5.143 19.714 15.143 14.286 15.143 34 0 7.143-2.857 15.857-2.857 8.714-7.143 13.572h94.572q14.857 0 25.714 10.857t10.857 25.715q0 14.572-11.143 25.572t-25.428 11H274.294q0 5.714 4.286 13.857 4.286 8.143 9.428 15.714 5.142 7.571 9.428 19.429 4.286 11.858 4.286 24.143 0 19.143-12.714 27.857-12.714 8.714-33 8.714-6.857 0-25.714-39.714-6.857-12.572-10.572-18.572-11.428-18.286-32-41.428-20.286-23.143-28.857-30.286-19.715-16.286-40-16.286h-9.143V41.142z"/></svg>