<svg xmlns="http://www.w3.org/2000/svg" viewBox="-125.577 -166.734 690.013 708.326"><path d="M0 50.286v274.286q0 34 24.143 58.143t58.143 24.143h274.286q34 0 58.143-24.143t24.143-58.143V50.286q0-34-24.143-58.143T356.572-32H82.286q-34 0-58.143 24.143T0 50.286zm73.143 0q0-4 2.572-6.572t6.572-2.572h274.286q4 0 6.572 2.572t2.572 6.572v274.286q0 4-2.572 6.572t-6.572 2.571H82.287q-4 0-6.572-2.571t-2.572-6.572zM146.286 96v182.857q0 11.429 10 16.286 10 5.143 18.857-1.429l128-91.428q7.714-5.428 7.714-14.857 0-9.429-7.714-14.857l-128-91.428q-8.857-6.572-18.857-1.428-10 4.857-10 16.286z"/></svg>