<svg xmlns="http://www.w3.org/2000/svg" viewBox="-125.577 -166.734 690.013 708.326"><path d="M0 50.286v274.286q0 34 24.143 58.143t58.143 24.143h274.286q34 0 58.143-24.143t24.143-58.143V50.286q0-34-24.143-58.143T356.572-32H82.286q-34 0-58.143 24.143T0 50.286zm73.143 0q0-3.714 2.715-6.428t6.428-2.714h274.286q3.714 0 6.428 2.714t2.714 6.428v274.286q0 3.714-2.714 6.428t-6.428 2.714H82.286q-3.715 0-6.428-2.714t-2.715-6.428zM128 187.429q0 9.428 7.714 14.857l128 91.429q4.857 3.428 10.572 3.428 7.428 0 12.857-5.428 5.429-5.428 5.428-12.857V96.001q0-7.428-5.428-12.857-5.428-5.429-12.857-5.428-5.714 0-10.572 3.428l-128 91.428Q128 178 128 187.429z"/></svg>