<svg enable-background="new 0 0 200 200" viewBox="0 0 200 200" xmlns="http://www.w3.org/2000/svg" xmlns:xlink="http://www.w3.org/1999/xlink"><clipPath id="a"><path d="m48.6 46.5h102v113h-102z"/></clipPath><circle cx="99.2" cy="99.4" fill="#fff" r="95"/><g fill="#006f51"><path d="m61.9 101.1h7.6c.5 0 1-.1 1.4-.3.5-.2.9-.5 1.2-.8.4-.3.6-.8.8-1.2.2-.5.3-.9.3-1.4v-7.5c0-.5-.1-1-.3-1.4-.2-.5-.5-.9-.8-1.2-.4-.4-.8-.6-1.2-.8-.5-.2-.9-.3-1.4-.3h-7.6c-.5 0-1 .1-1.4.3-.5.2-.9.5-1.2.8-.4.4-.6.8-.8 1.2-.2.5-.3.9-.3 1.4v7.5c0 .5.1 1 .3 1.4.2.5.5.9.8 1.2.4.4.8.6 1.2.8s.9.3 1.4.3zm0-11.3h7.6v7.5h-7.6z"/><path d="m84.5 101.1h7.6c.5 0 1-.1 1.4-.3.5-.2.9-.5 1.2-.8.4-.3.6-.8.8-1.2.2-.5.3-.9.3-1.4v-7.5c0-.5-.1-1-.3-1.4-.2-.5-.5-.9-.8-1.2-.4-.4-.8-.6-1.2-.8-.5-.2-.9-.3-1.4-.3h-7.6c-.5 0-1 .1-1.4.3-.5.2-.9.5-1.2.8-.4.4-.6.8-.8 1.2-.2.5-.3.9-.3 1.4v7.5c0 .5.1 1 .3 1.4.2.5.5.9.8 1.2.4.4.8.6 1.2.8s.9.3 1.4.3zm0-11.3h7.6v7.5h-7.6z"/><path d="m107.2 101.1h7.6c.5 0 1-.1 1.4-.3.5-.2.9-.5 1.2-.8.4-.3.6-.8.8-1.2.2-.5.3-.9.3-1.4v-7.5c0-.5-.1-1-.3-1.4-.2-.5-.5-.9-.8-1.2-.4-.4-.8-.6-1.2-.8-.5-.2-.9-.3-1.4-.3h-7.6c-.5 0-1 .1-1.4.3-.5.2-.9.5-1.2.8-.4.4-.6.8-.8 1.2-.2.5-.3.9-.3 1.4v7.5c0 .5.1 1 .3 1.4.2.5.5.9.8 1.2.4.4.8.6 1.2.8s.9.3 1.4.3zm0-11.3h7.6v7.5h-7.6z"/><path d="m129.9 101.1h7.6c.5 0 1-.1 1.4-.3.5-.2.9-.5 1.2-.8.4-.3.6-.8.8-1.2.2-.5.3-.9.3-1.4v-7.5c0-.5-.1-1-.3-1.4-.2-.5-.5-.9-.8-1.2-.4-.4-.8-.6-1.2-.8-.5-.2-.9-.3-1.4-.3h-7.6c-.5 0-1 .1-1.4.3-.5.2-.9.5-1.2.8-.4.4-.6.8-.8 1.2-.2.5-.3.9-.3 1.4v7.5c0 .5.1 1 .3 1.4.2.5.5.9.8 1.2.4.4.8.6 1.2.8s.9.3 1.4.3zm0-11.3h7.6v7.5h-7.6z"/><path d="m58.1 118c0 .5.1 1 .3 1.4.2.5.5.9.8 1.2.4.4.8.6 1.2.8.5.2.9.3 1.4.3h7.6c.5 0 1-.1 1.4-.3.5-.2.9-.5 1.2-.8.4-.4.6-.8.8-1.2.2-.5.3-.9.3-1.4v-7.5c0-.5-.1-1-.3-1.4-.2-.5-.5-.9-.8-1.2-.4-.4-.8-.6-1.2-.8-.5-.2-.9-.3-1.4-.3h-7.6c-.5 0-1 .1-1.4.3-.5.2-.9.5-1.2.8-.4.4-.6.8-.8 1.2-.2.5-.3.9-.3 1.4zm3.8-7.5h7.6v7.5h-7.6z"/><path d="m80.8 117.1c0 .5.1 1 .3 1.4.2.5.5.9.8 1.2.4.4.8.6 1.2.8.5.2.9.3 1.4.3h7.6c.5 0 1-.1 1.4-.3.5-.2.9-.5 1.2-.8.4-.3.6-.8.8-1.2.2-.5.3-.9.3-1.4v-7.5c0-.5-.1-1-.3-1.4-.2-.5-.5-.9-.8-1.2-.4-.4-.8-.6-1.2-.8-.5-.2-.9-.3-1.4-.3h-7.6c-.5 0-1 .1-1.4.3-.5.2-.9.5-1.2.8-.4.4-.6.8-.8 1.2-.2.5-.3.9-.3 1.4zm3.7-7.6h7.6v7.5h-7.6z"/><path d="m103.4 117.1c0 .5.1 1 .3 1.4.2.5.5.9.8 1.2.4.4.8.6 1.2.8.5.2.9.3 1.4.3h7.6c.5 0 1-.1 1.4-.3.5-.2.9-.5 1.2-.8.4-.3.6-.8.8-1.2.2-.5.3-.9.3-1.4v-7.5c0-.5-.1-1-.3-1.4-.2-.5-.5-.9-.8-1.2-.4-.4-.8-.6-1.2-.8-.5-.2-.9-.3-1.4-.3h-7.6c-.5 0-1 .1-1.4.3-.5.2-.9.5-1.2.8-.4.4-.6.8-.8 1.2-.2.5-.3.9-.3 1.4zm3.8-7.6h7.6v7.5h-7.6z"/><path d="m126.1 117.1c0 .5.1 1 .3 1.4.2.5.5.9.8 1.2.4.4.8.6 1.2.8.5.2.9.3 1.4.3h7.6c.5 0 1-.1 1.4-.3.5-.2.9-.5 1.2-.8.4-.3.6-.8.8-1.2.2-.5.3-.9.3-1.4v-7.5c0-.5-.1-1-.3-1.4-.2-.5-.5-.9-.8-1.2-.4-.4-.8-.6-1.2-.8-.5-.2-.9-.3-1.4-.3h-7.6c-.5 0-1 .1-1.4.3-.5.2-.9.5-1.2.8-.4.4-.6.8-.8 1.2-.2.5-.3.9-.3 1.4zm3.8-7.6h7.6v7.5h-7.6z"/><path d="m58.1 136.8c0 .5.1 1 .3 1.4.2.5.5.9.8 1.2.4.4.8.6 1.2.8.5.2.9.3 1.4.3h7.6c.5 0 1-.1 1.4-.3.5-.2.9-.5 1.2-.8.4-.3.6-.8.8-1.2.2-.5.3-.9.3-1.4v-7.5c0-.5-.1-1-.3-1.4-.2-.5-.5-.9-.8-1.2-.4-.4-.8-.6-1.2-.8-.5-.2-.9-.3-1.4-.3h-7.6c-.5 0-1 .1-1.4.3-.5.2-.9.5-1.2.8s-.6.8-.8 1.2c-.2.5-.3.9-.3 1.4zm3.8-7.5h7.6v7.5h-7.6z"/><path d="m80.8 136.8c0 .5.1 1 .3 1.4.2.5.5.9.8 1.2.4.4.8.6 1.2.8.5.2.9.3 1.4.3h7.6c.5 0 1-.1 1.4-.3.5-.2.9-.5 1.2-.8.4-.3.6-.8.8-1.2.2-.5.3-.9.3-1.4v-7.5c0-.5-.1-1-.3-1.4-.2-.5-.5-.9-.8-1.2-.4-.4-.8-.6-1.2-.8-.5-.2-.9-.3-1.4-.3h-7.6c-.5 0-1 .1-1.4.3-.5.2-.9.5-1.2.8-.4.4-.6.8-.8 1.2-.2.5-.3.9-.3 1.4zm3.7-7.5h7.6v7.5h-7.6z"/><path d="m103.4 136.8c0 .5.1 1 .3 1.4.2.5.5.9.8 1.2.4.4.8.6 1.2.8.5.2.9.3 1.4.3h7.6c.5 0 1-.1 1.4-.3.5-.2.9-.5 1.2-.8.4-.3.6-.8.8-1.2.2-.5.3-.9.3-1.4v-7.5c0-.5-.1-1-.3-1.4-.2-.5-.5-.9-.8-1.2s-.8-.6-1.2-.8c-.5-.2-.9-.3-1.4-.3h-7.6c-.5 0-1 .1-1.4.3-.5.2-.9.5-1.2.8-.4.4-.6.8-.8 1.2-.2.5-.3.9-.3 1.4zm3.8-7.5h7.6v7.5h-7.6z"/></g><g clip-path="url(#a)"><path d="m141.2 54h-5.7v-1c0-.4 0-.9-.1-1.3s-.2-.8-.4-1.2-.4-.8-.6-1.1c-.2-.4-.5-.7-.8-1s-.6-.6-1-.8-.7-.4-1.1-.6-.8-.3-1.2-.4-.9-.1-1.3-.1-.9 0-1.3.1-.8.2-1.2.4-.8.4-1.1.6c-.4.2-.7.5-1 .8s-.6.6-.8 1-.4.7-.6 1.1-.3.8-.4 1.2-.1.9-.1 1.3v1h-16.1v-1c0-.4 0-.9-.1-1.3s-.2-.8-.4-1.2-.4-.8-.6-1.1c-.2-.4-.5-.7-.8-1s-.6-.6-1-.8-.7-.4-1.1-.6-.8-.3-1.2-.4-.9-.1-1.3-.1-.9 0-1.3.1-.8.2-1.2.4-.8.4-1.1.6c-.4.2-.7.5-1 .8s-.6.6-.8 1-.4.7-.6 1.1-.3.8-.4 1.2c-.4.5-.5.9-.5 1.3v1h-16v-1c0-.4 0-.9-.1-1.3s-.2-.8-.4-1.2-.4-.8-.6-1.1c-.2-.4-.5-.7-.8-1s-.6-.6-1-.8-.7-.4-1.1-.6-.8-.3-1.2-.4-.9-.1-1.3-.1-.9 0-1.3.1-.8.2-1.2.4-.8.4-1.1.6c-.4.2-.7.5-1 .8s-.6.6-.8 1-.4.7-.6 1.1-.3.8-.4 1.2-.1.9-.1 1.3v1h-5.7c-.6 0-1.2.1-1.8.2s-1.2.3-1.8.5-1.1.5-1.6.9-1 .7-1.4 1.2c-.4.4-.8.9-1.2 1.4-.3.5-.6 1.1-.9 1.6-.2.6-.4 1.2-.5 1.8s-.2 1.2-.2 1.8v58.4c0 .2 0 .5.1.7s.2.4.4.6.4.3.6.4.5.1.7.1.5 0 .7-.1.4-.2.6-.4.3-.4.4-.6.1-.5.1-.7v-41.5h94.4v45.2c0 .2 0 .5-.1.7s-.2.4-.4.6-.4.3-.6.4-.5.1-.7.1h-9.4c-.6 0-1.2.1-1.8.2s-1.2.3-1.8.5-1.1.5-1.6.9-1 .7-1.4 1.2-.8.9-1.2 1.4-.6 1.1-.9 1.6c-.2.6-.4 1.2-.5 1.8s-.2 1.2-.2 1.8v9.4c0 .2 0 .5-.1.7s-.2.4-.4.6-.4.3-.6.4-.5.1-.7.1l-66.4.1c-.4 0-.7 0-1.1-.1s-.7-.2-1.1-.3-.7-.3-1-.5-.6-.4-.9-.7-.5-.5-.7-.9c-.2-.3-.4-.6-.5-1-.1-.3-.2-.7-.3-1.1s-.1-.7-.1-1.1v-5.5c0-.2 0-.5-.1-.7s-.2-.4-.4-.6-.4-.3-.6-.4-.5-.1-.7-.1-.5.1-.7.1c-.2.1-.4.2-.6.4s-.3.4-.4.6-.1.5-.1.7v13.2c0 .6.1 1.2.2 1.8s.3 1.2.5 1.8.5 1.1.9 1.6c.3.5.7 1 1.2 1.4.4.4.9.8 1.4 1.2s1.1.6 1.6.9c.6.2 1.2.4 1.8.5s1.2.2 1.8.2h83.1c.6 0 1.2-.1 1.8-.2s1.2-.3 1.8-.5 1.1-.5 1.6-.9 1-.7 1.4-1.2.8-.9 1.2-1.4c.3-.5.6-1.1.9-1.6.2-.6.4-1.2.5-1.8s.2-1.2.2-1.8v-86.6c0-.6-.1-1.2-.2-1.8s-.3-1.2-.5-1.8-.5-1.1-.9-1.6c-.3-.5-.7-1-1.2-1.4s-.9-.8-1.4-1.2-1.1-.6-1.6-.9c-.6-.2-1.2-.4-1.8-.5-.7-.2-1.3-.2-1.9-.2zm-15.1-1c0-.4.1-.7.2-1.1.1-.3.3-.7.6-.9s.6-.5.9-.6.7-.2 1.1-.2.7.1 1.1.2c.3.1.7.3.9.6s.5.6.6.9.2.7.2 1.1v7.5c0 .4-.1.7-.2 1.1-.1.3-.3.7-.6.9s-.6.5-.9.6-.7.2-1.1.2-.7-.1-1.1-.2c-.3-.1-.7-.3-.9-.6s-.5-.6-.6-.9-.2-.7-.2-1.1zm-29.3 0c0-.4.1-.7.2-1.1.1-.3.3-.7.6-.9s.6-.5.9-.6.7-.2 1.1-.2.7.1 1.1.2c.3.1.7.3.9.6s.5.6.6.9.2.7.2 1.1v7.5c0 .4-.1.7-.2 1.1-.1.3-.3.7-.6.9s-.6.5-.9.6-.7.2-1.1.2-.7-.1-1.1-.2c-.3-.1-.7-.3-.9-.6s-.4-.5-.6-.8c-.1-.3-.2-.7-.2-1.1zm-29.3 0c0-.4.1-.7.2-1.1.1-.3.3-.7.6-.9s.6-.5.9-.6.7-.2 1.1-.2.7.1 1.1.2c.3.1.7.3.9.6s.5.6.6.9.2.7.2 1.1v7.5c0 .4-.1.7-.2 1.1-.1.3-.3.7-.6.9s-.6.5-.9.6-.7.2-1.1.2-.7-.1-1.1-.2c-.3-.1-.7-.3-.9-.6s-.5-.6-.6-.9-.2-.7-.2-1.1zm-15.1 23.6v-13.2c0-.4 0-.7.1-1.1s.2-.7.3-1.1c.1-.3.3-.7.5-1s.4-.6.7-.9.5-.5.9-.7c.3-.2.6-.4 1-.5.3-.1.7-.2 1.1-.3s.7-.1 1.1-.1h5.7v2.8c0 .4 0 .9.1 1.3s.2.8.4 1.2.4.8.6 1.1c.2.4.5.7.8 1s.6.6 1 .8.7.4 1.1.6.8.3 1.2.4.9.1 1.3.1.9 0 1.3-.1.8-.2 1.2-.4.8-.4 1.1-.6c.4-.2.7-.5 1-.8s.6-.6.8-1 .4-.7.6-1.1.3-.8.4-1.2.1-.9.1-1.3v-2.8h16.2v2.8c0 .4 0 .9.1 1.3s.2.8.4 1.2.4.8.6 1.1c.2.4.5.7.8 1s.6.6 1 .8.7.4 1.1.6.8.3 1.2.4.9.1 1.3.1.9 0 1.3-.1.8-.2 1.2-.4.8-.4 1.1-.6c.4-.2.7-.5 1-.8s.6-.6.8-1 .4-.7.6-1.1.3-.8.4-1.2.1-.9.1-1.3v-2.8h16.1v2.8c0 .4 0 .9.1 1.3s.2.8.4 1.2.4.8.6 1.1c.2.4.5.7.8 1s.6.6 1 .8.7.4 1.1.6.8.3 1.2.4.9.1 1.3.1.9 0 1.3-.1.8-.2 1.2-.4.8-.4 1.1-.6c.4-.2.7-.5 1-.8s.6-.6.8-1 .4-.7.6-1.1.3-.8.4-1.2.1-.9.1-1.3v-2.8h5.7c.4 0 .7 0 1.1.1s.7.2 1.1.3c.3.1.7.3 1 .5s.6.4.9.7.5.5.7.9c.2.3.4.6.5 1 .1.3.2.7.3 1.1s.1.7.1 1.1v13.2zm77.5 60.2c0-.4 0-.7.1-1.1s.2-.7.3-1.1.3-.7.5-1 .4-.6.7-.9.5-.5.9-.7c.3-.2.6-.4 1-.5s.7-.2 1.1-.3.7-.1 1.1-.1h8.7l-14.3 14.3v-8.6zm11.3 18.9h-83.1c-.4 0-.8 0-1.1-.1-.4-.1-.7-.2-1.1-.3-.3-.1-.7-.3-1-.5s-.6-.5-.9-.7c-.3-.3-.5-.6-.7-.9s-.4-.7-.5-1-.2-.7-.3-1.1-.1-.8-.1-1.1c1.7 1.3 3.5 1.9 5.7 1.9l66.8.1c1.3 0 2.5-.2 3.6-.7 1.2-.5 2.2-1.2 3.1-2l15.3-15.3v16c0 .4 0 .7-.1 1.1s-.2.7-.3 1.1c-.1.3-.3.7-.5 1s-.4.6-.7.9-.6.5-.9.7-.6.4-1 .5c-.3.1-.7.2-1.1.3-.4 0-.7.1-1.1.1z" fill="#006f51"/></g></svg>