<svg enable-background="new 0 0 200 200" viewBox="0 0 200 200" xmlns="http://www.w3.org/2000/svg" xmlns:xlink="http://www.w3.org/1999/xlink"><clipPath id="a"><path d="m60.5 41.9h77.3v123h-77.3z"/></clipPath><circle cx="99.5" cy="99.7" fill="#fff" r="95"/><g clip-path="url(#a)"><path d="m99.6 41.9c-1.2 0-2.5.1-3.7.2s-2.5.3-3.7.6c-1.2.2-2.4.5-3.6.9s-2.3.8-3.5 1.3c-1.1.5-2.3 1-3.3 1.6-1.1.6-2.2 1.2-3.2 1.9s-2 1.4-3 2.2-1.9 1.6-2.8 2.5-1.7 1.8-2.5 2.8-1.5 2-2.2 3-1.3 2.1-1.9 3.2-1.1 2.2-1.6 3.4c-.5 1.1-.9 2.3-1.3 3.5s-.7 2.4-.9 3.6-.3 2.4-.4 3.6-.2 2.5-.2 3.7c0 12.7 12.7 33.9 23 48.8h-9.6l-9 36.2h66.8l-9-36.2h-9.6c10.2-15 23-36.2 23-48.8 0-1.2-.1-2.5-.2-3.7s-.3-2.5-.5-3.7-.5-2.4-.9-3.6-.8-2.4-1.3-3.5c-.5-1.2-1-2.3-1.6-3.4s-1.2-2.2-1.9-3.2-1.4-2-2.2-3-1.6-1.9-2.5-2.8-1.8-1.7-2.8-2.5-1.9-1.5-3-2.2c-1-.7-2.1-1.3-3.2-1.9s-2.2-1.1-3.3-1.6-2.3-.9-3.5-1.3-2.4-.7-3.6-.9-2.4-.4-3.7-.6c-1.1 0-2.3-.1-3.6-.1zm18.8 94.1 5.4 21.7h-48.4l5.4-21.7h8.9c3.5 4.8 6.1 8.3 7.2 9.5l2.9 3.7 2.9-3.7c.9-1.2 3.5-4.6 7.2-9.5zm-18.8 1.2c-10.6-14.3-30.6-44-30.6-57.3 0-1 0-2 .1-3s.2-2 .4-3 .4-2 .7-2.9c.3-1 .6-1.9 1-2.8s.8-1.8 1.3-2.7 1-1.8 1.5-2.6c.6-.8 1.2-1.6 1.8-2.4s1.3-1.5 2-2.2 1.4-1.4 2.2-2 1.6-1.2 2.4-1.8 1.7-1.1 2.6-1.6 1.8-.9 2.7-1.3 1.9-.7 2.8-1c1-.3 1.9-.5 2.9-.7s2-.3 3-.4 2-.1 3-.1 2 0 3 .1 2 .2 3 .4 2 .4 2.9.7c1 .3 1.9.6 2.8 1s1.8.8 2.7 1.3 1.7 1 2.6 1.6c.8.6 1.6 1.2 2.4 1.8s1.5 1.3 2.2 2 1.4 1.5 2 2.2c.6.8 1.2 1.6 1.8 2.4s1.1 1.7 1.5 2.6c.5.9.9 1.8 1.3 2.7s.7 1.9 1 2.8c.3 1 .5 1.9.7 2.9s.3 2 .4 3 .1 2 .1 3c.4 13.3-19.6 43-30.2 57.3z" fill="#006f51"/></g><path d="m99.6 67.3c-.9 0-1.9.1-2.8.3s-1.8.5-2.7.8c-.9.4-1.7.8-2.5 1.3s-1.5 1.1-2.2 1.8-1.3 1.4-1.8 2.2-1 1.6-1.3 2.5c-.4.9-.6 1.8-.8 2.7s-.3 1.9-.3 2.8.1 1.9.3 2.8.5 1.8.8 2.7c.4.9.8 1.7 1.3 2.5s1.1 1.5 1.8 2.2 1.4 1.3 2.2 1.8 1.6 1 2.5 1.3c.9.4 1.8.6 2.7.8s1.9.3 2.8.3 1.9-.1 2.8-.3 1.8-.5 2.7-.8c.9-.4 1.7-.8 2.5-1.3s1.5-1.1 2.2-1.8 1.3-1.4 1.8-2.2 1-1.6 1.3-2.5c.4-.9.6-1.8.8-2.7s.3-1.9.3-2.8-.1-1.9-.3-2.8-.5-1.8-.8-2.7c-.4-.9-.8-1.7-1.3-2.5s-1.1-1.5-1.8-2.2-1.4-1.3-2.2-1.8-1.6-1-2.5-1.3c-.9-.4-1.8-.6-2.7-.8-.9-.3-1.8-.3-2.8-.3zm0 21.7c-.5 0-.9 0-1.4-.1s-.9-.2-1.4-.4c-.4-.2-.8-.4-1.2-.7s-.8-.6-1.1-.9-.6-.7-.9-1.1-.5-.8-.7-1.2-.3-.9-.4-1.4-.1-.9-.1-1.4 0-.9.1-1.4.2-.9.4-1.4c.2-.4.4-.9.7-1.2.3-.4.6-.8.9-1.1s.7-.6 1.1-.9.8-.5 1.2-.7.9-.3 1.4-.4.9-.1 1.4-.1.9 0 1.4.1.9.2 1.4.4c.4.2.8.4 1.2.7s.8.6 1.1.9.6.7.9 1.1.5.8.7 1.2.3.9.4 1.4.1.9.1 1.4 0 .9-.1 1.4-.2.9-.4 1.4c-.2.4-.4.9-.7 1.2-.3.4-.6.8-.9 1.1s-.7.6-1.1.9-.8.5-1.2.7-.9.3-1.4.4c-.4 0-.9.1-1.4.1z" fill="#006f51"/></svg>