<svg enable-background="new 0 0 200 200" viewBox="0 0 200 200" xmlns="http://www.w3.org/2000/svg" xmlns:xlink="http://www.w3.org/1999/xlink"><clipPath id="a"><path d="m62.8 41.6h72.8v113h-72.8z"/></clipPath><circle cx="99.2" cy="99.4" fill="#fff" r="95"/><g clip-path="url(#a)"><path d="m100.6 154.7c-6.7 0-12.2-5.5-12.2-12.3 0-6.7 5.5-12.1 12.2-12.1 6.5 0 11.9 5.6 11.9 12.1 0 6.8-5.3 12.3-11.9 12.3zm0-18.3c-3.4 0-6.1 2.7-6.1 6 0 3.4 2.7 6.2 6.1 6.2 3.2 0 5.9-2.8 5.9-6.2 0-3.2-2.7-6-5.9-6zm.2-12.7c-7.2 0-11.1-5.7-11.1-11.1 0-12.2 7.6-18.9 14.3-24.8 5.2-4.6 9.8-8.6 9.8-14.4 0-6-4.9-12.3-14-12.3-4.3 0-7.7 1.3-10.2 3.9-2.8 2.8-4.3 7.1-4.2 12.1 0 5.5-3.4 11.3-10.9 11.3s-10.9-5.8-10.9-11.2c0-23 18.7-35.4 36.3-35.4 20.2 0 35.4 13.8 35.4 32.2 0 13.1-7.8 19.6-14 24.8-5.2 4.4-9.3 7.8-9.3 14-.2 5.2-4.1 10.9-11.2 10.9zm-1-68.8c12.6 0 20.1 9.4 20.1 18.4 0 8.6-6 13.9-11.9 19-6.3 5.5-12.2 10.7-12.2 20.2 0 2.4 1.6 5 5 5s5-2.6 5-5c0-9 5.9-14 11.5-18.7 6.1-5.1 11.8-9.9 11.8-20.1 0-17.1-14.7-26.1-29.3-26.1-15 0-30.2 10.1-30.2 29.3 0 1.2.3 5.2 4.8 5.2s4.8-3.9 4.8-5.2c-.1-6.6 2-12.4 6-16.4 3.6-3.6 8.7-5.6 14.6-5.6z" fill="#006f51"/></g></svg>