<svg xmlns="http://www.w3.org/2000/svg" viewBox="-146.507 -187.663 805.013 823.327"><path d="M256 480C114.615 480 0 365.385 0 224S114.615-32 256-32 512 82.615 512 224 397.385 480 256 480zm150.628-278.628l-128.001-128C272.379 67.124 264.189 64 256 64c-8.189 0-16.379 3.124-22.627 9.372-12.497 12.497-12.497 32.759 0 45.256L306.745 192H128c-17.673 0-32 14.327-32 32 0 17.673 14.327 32 32 32h178.745l-73.373 73.373c-12.497 12.497-12.497 32.758 0 45.255s32.758 12.497 45.254 0l128.001-128c12.497-12.497 12.497-32.759.001-45.256z"/></svg>