<svg xmlns="http://www.w3.org/2000/svg" viewBox="-145.946 -168.294 801.935 716.895"><path d="M197.183-7.02c0 13.79 11.185 24.974 24.98 24.974 13.801 0 24.986-11.185 24.986-24.974 0-13.796-11.184-24.98-24.986-24.98-13.796 0-24.98 11.185-24.98 24.98zm0 65.718c0 13.801 11.185 24.991 24.98 24.991 13.801 0 24.986-11.19 24.986-24.991 0-13.79-11.184-24.974-24.986-24.974-13.796 0-24.98 11.185-24.98 24.974zm-65.712 0c0 13.801 11.167 24.991 24.969 24.991 13.784 0 24.963-11.19 24.963-24.991 0-13.79-11.173-24.974-24.963-24.974-13.801 0-24.969 11.185-24.969 24.974zm328.595 65.73c0 13.79 11.224 24.986 25.002 24.986 13.79 0 24.974-11.195 24.974-24.986 0-13.807-11.185-24.991-24.974-24.991-13.779.005-25.002 11.19-25.002 24.991zm-65.706 0c0 13.79 11.185 24.986 24.986 24.986 13.79 0 24.969-11.195 24.969-24.986 0-13.807-11.178-24.991-24.969-24.991-13.801.005-24.986 11.19-24.986 24.991zm-65.724 0c0 13.79 11.185 24.986 24.98 24.986 13.79 0 24.957-11.195 24.957-24.986 0-13.807-11.168-24.991-24.957-24.991-13.796.005-24.98 11.19-24.98 24.991zm-65.712 0c0 13.79 11.168 24.986 24.974 24.986 13.801 0 24.963-11.195 24.963-24.986 0-13.807-11.161-24.991-24.963-24.991-13.807.005-24.974 11.19-24.974 24.991zm-65.741 0c0 13.79 11.185 24.986 24.98 24.986 13.801 0 24.986-11.195 24.986-24.986 0-13.807-11.184-24.991-24.986-24.991-13.796.005-24.98 11.19-24.98 24.991zm-65.712 0c0 13.79 11.167 24.986 24.969 24.986 13.784 0 24.963-11.195 24.963-24.986 0-13.807-11.173-24.991-24.963-24.991-13.801.005-24.969 11.19-24.969 24.991zm-65.724 0c0 13.79 11.173 24.986 24.946 24.986 13.819 0 25.002-11.195 25.002-24.986 0-13.807-11.178-24.991-25.002-24.991-13.773.005-24.946 11.19-24.946 24.991zm394.319 65.724c0 13.807 11.224 24.98 25.002 24.98 13.79 0 24.974-11.167 24.974-24.98 0-13.79-11.185-24.992-24.974-24.992-13.779 0-25.002 11.202-25.002 24.992zm-65.706 0c0 13.807 11.185 24.98 24.986 24.98 13.79 0 24.969-11.167 24.969-24.98 0-13.79-11.178-24.992-24.969-24.992-13.801 0-24.986 11.202-24.986 24.992zm-65.724 0c0 13.807 11.185 24.98 24.98 24.98 13.79 0 24.957-11.167 24.957-24.98 0-13.79-11.168-24.992-24.957-24.992-13.796 0-24.98 11.202-24.98 24.992zm-65.712 0c0 13.807 11.168 24.98 24.974 24.98 13.801 0 24.963-11.167 24.963-24.98 0-13.79-11.161-24.992-24.963-24.992-13.807 0-24.974 11.202-24.974 24.992zm-65.741 0c0 13.807 11.185 24.98 24.98 24.98 13.801 0 24.986-11.167 24.986-24.98 0-13.79-11.184-24.992-24.986-24.992-13.796 0-24.98 11.202-24.98 24.992zm-65.712 0c0 13.807 11.167 24.98 24.969 24.98 13.784 0 24.963-11.167 24.963-24.98 0-13.79-11.173-24.992-24.963-24.992-13.801 0-24.969 11.202-24.969 24.992zm-65.724 0c0 13.807 11.173 24.98 24.946 24.98 13.819 0 25.002-11.167 25.002-24.98 0-13.79-11.178-24.992-25.002-24.992-13.773 0-24.946 11.202-24.946 24.992zm-65.747 0c0 13.807 11.184 24.98 24.974 24.98 13.812 0 24.985-11.167 24.985-24.98 0-13.79-11.173-24.992-24.985-24.992C11.184 165.16 0 176.362 0 190.152zm460.066 65.729c0 13.784 11.224 24.969 25.002 24.969 13.79 0 24.974-11.185 24.974-24.969s-11.185-24.991-24.974-24.991c-13.779 0-25.002 11.202-25.002 24.991zm-65.706 0c0 13.784 11.185 24.969 24.986 24.969 13.79 0 24.969-11.185 24.969-24.969s-11.178-24.991-24.969-24.991c-13.801 0-24.986 11.202-24.986 24.991zm-65.724 0c0 13.784 11.185 24.969 24.98 24.969 13.79 0 24.957-11.185 24.957-24.969s-11.168-24.991-24.957-24.991c-13.796 0-24.98 11.202-24.98 24.991zm-65.712 0c0 13.784 11.168 24.969 24.974 24.969 13.801 0 24.963-11.185 24.963-24.969S301.7 230.89 287.898 230.89c-13.807 0-24.974 11.202-24.974 24.991zm-65.741 0c0 13.784 11.185 24.969 24.98 24.969 13.801 0 24.986-11.185 24.986-24.969s-11.184-24.991-24.986-24.991c-13.796 0-24.98 11.202-24.98 24.991zm-65.712 0c0 13.784 11.167 24.969 24.969 24.969 13.784 0 24.963-11.185 24.963-24.969S170.23 230.89 156.44 230.89c-13.801 0-24.969 11.202-24.969 24.991zm-65.724 0c0 13.784 11.173 24.969 24.946 24.969 13.819 0 25.002-11.185 25.002-24.969s-11.178-24.991-25.002-24.991c-13.773 0-24.946 11.202-24.946 24.991zm131.436 65.712c0 13.807 11.185 24.986 24.98 24.986 13.801 0 24.986-11.178 24.986-24.986 0-13.784-11.184-24.968-24.986-24.968-13.796.005-24.98 11.19-24.98 24.968zm-65.712 0c0 13.807 11.167 24.986 24.969 24.986 13.784 0 24.963-11.178 24.963-24.986 0-13.784-11.173-24.968-24.963-24.968-13.801.005-24.969 11.19-24.969 24.968zm65.712 65.741c0 13.784 11.185 24.974 24.98 24.974 13.801 0 24.986-11.19 24.986-24.974s-11.184-24.986-24.986-24.986c-13.796 0-24.98 11.196-24.98 24.986z"/></svg>