<svg xmlns="http://www.w3.org/2000/svg" viewBox="-145.555 -118.268 799.782 442.019"><path d="M119.592-16.856c0 8.368 6.787 15.161 15.155 15.161 8.368 0 15.149-6.793 15.149-15.161 0-8.374-6.781-15.144-15.149-15.144-8.363 0-15.155 6.77-15.155 15.144zm-.791 39.873c0 8.357 6.781 15.149 15.149 15.149 8.363 0 15.149-6.793 15.149-15.149 0-8.374-6.781-15.155-15.149-15.155-8.368 0-15.15 6.781-15.15 15.155zm-39.065 0c0 8.357 6.775 15.149 15.144 15.149s15.161-6.793 15.161-15.149c0-8.374-6.787-15.155-15.161-15.155-8.368 0-15.144 6.781-15.144 15.155zm119.597 0c0 8.357 6.787 15.149 15.149 15.149 8.357 0 15.144-6.793 15.144-15.149 0-8.374-6.787-15.155-15.144-15.155-8.363 0-15.149 6.781-15.149 15.155zm-39.873 0c0 8.357 6.781 15.149 15.144 15.149 8.38 0 15.161-6.793 15.161-15.149 0-8.374-6.781-15.155-15.161-15.155-8.363 0-15.144 6.781-15.144 15.155zm79.735-39.873c0 8.368 6.775 15.161 15.144 15.161s15.144-6.793 15.144-15.161c0-8.374-6.776-15.144-15.144-15.144s-15.144 6.77-15.144 15.144zM159.46 62.879c0 8.368 6.781 15.138 15.144 15.138 8.38 0 15.161-6.77 15.161-15.138 0-8.374-6.781-15.144-15.161-15.144-8.363 0-15.144 6.77-15.144 15.144zm-40.659 0c0 8.368 6.781 15.138 15.149 15.138 8.363 0 15.149-6.77 15.149-15.138 0-8.374-6.781-15.144-15.149-15.144-8.368 0-15.15 6.77-15.15 15.144zm-39.065 0c0 8.368 6.775 15.138 15.144 15.138s15.161-6.77 15.161-15.138c0-8.374-6.787-15.144-15.161-15.144-8.368 0-15.144 6.77-15.144 15.144zm-39.863 0c0 8.368 6.781 15.138 15.149 15.138 8.362 0 15.144-6.77 15.144-15.138 0-8.374-6.781-15.144-15.144-15.144-8.368 0-15.149 6.77-15.149 15.144zm119.587 159.46c0 8.362 6.781 15.144 15.144 15.144 8.38 0 15.161-6.776 15.161-15.144s-6.781-15.144-15.161-15.144c-8.363-.006-15.144 6.775-15.144 15.144zm0-239.195c0 8.368 6.781 15.161 15.144 15.161 8.38 0 15.161-6.793 15.161-15.161 0-8.374-6.781-15.144-15.161-15.144-8.363 0-15.144 6.77-15.144 15.144zm39.873 0c0 8.368 6.787 15.161 15.149 15.161 8.357 0 15.144-6.793 15.144-15.161 0-8.374-6.787-15.144-15.144-15.144-8.363 0-15.149 6.77-15.149 15.144zm39.862 239.195c0 8.362 6.775 15.144 15.144 15.144s15.144-6.776 15.144-15.144c0-8.369-6.776-15.144-15.144-15.144s-15.144 6.775-15.144 15.144zM119.592 102.73c0 8.374 6.787 15.161 15.155 15.161 8.368 0 15.149-6.787 15.149-15.161 0-8.363-6.781-15.138-15.149-15.138-8.363 0-15.155 6.776-15.155 15.138zm-39.856 0c0 8.374 6.775 15.161 15.144 15.161s15.161-6.787 15.161-15.161c0-8.363-6.787-15.138-15.161-15.138-8.368 0-15.144 6.776-15.144 15.138zm-39.863 0c0 8.374 6.781 15.161 15.149 15.161 8.362 0 15.144-6.787 15.144-15.161 0-8.363-6.781-15.138-15.144-15.138-8.368 0-15.149 6.776-15.149 15.138zM0 102.73c0 8.374 6.787 15.161 15.155 15.161 8.357 0 15.144-6.787 15.144-15.161 0-8.363-6.781-15.138-15.144-15.138S0 94.368 0 102.73zm199.333 79.741c0 8.369 6.787 15.155 15.149 15.155 8.357 0 15.144-6.787 15.144-15.155 0-8.368-6.787-15.144-15.144-15.144-8.363 0-15.149 6.776-15.149 15.144zm-39.873 0c0 8.369 6.781 15.155 15.144 15.155 8.38 0 15.161-6.787 15.161-15.155 0-8.368-6.781-15.144-15.161-15.144-8.363 0-15.144 6.776-15.144 15.144zm39.873 39.868c0 8.362 6.787 15.144 15.149 15.144 8.357 0 15.144-6.776 15.144-15.144s-6.787-15.144-15.144-15.144c-8.363-.006-15.149 6.775-15.149 15.144zm-39.873-79.735c0 8.38 6.781 15.161 15.144 15.161 8.38 0 15.161-6.781 15.161-15.161 0-8.363-6.781-15.144-15.161-15.144-8.363 0-15.144 6.781-15.144 15.144zm-39.868 0c0 8.38 6.787 15.161 15.155 15.161 8.368 0 15.149-6.781 15.149-15.161 0-8.363-6.781-15.144-15.149-15.144-8.363 0-15.155 6.781-15.155 15.144zm-39.856 0c0 8.38 6.775 15.161 15.144 15.161s15.161-6.781 15.161-15.161c0-8.363-6.787-15.144-15.161-15.144-8.368 0-15.144 6.781-15.144 15.144zm-39.863 0c0 8.38 6.781 15.161 15.149 15.161 8.362 0 15.144-6.781 15.144-15.161 0-8.363-6.781-15.144-15.144-15.144-8.368 0-15.149 6.781-15.149 15.144zm79.719 39.867c0 8.369 6.787 15.155 15.155 15.155 8.368 0 15.149-6.787 15.149-15.155 0-8.368-6.781-15.144-15.149-15.144-8.363 0-15.155 6.776-15.155 15.144zm-39.856 0c0 8.369 6.775 15.155 15.144 15.155s15.161-6.787 15.161-15.155c0-8.368-6.787-15.144-15.161-15.144-8.368 0-15.144 6.776-15.144 15.144zm39.856 39.868c0 8.362 6.787 15.144 15.155 15.144 8.368 0 15.149-6.776 15.149-15.144 0-8.369-6.781-15.144-15.149-15.144-8.363-.006-15.155 6.775-15.155 15.144zm239.2-239.195c0 8.368 6.77 15.161 15.138 15.161s15.149-6.793 15.149-15.161c0-8.374-6.781-15.144-15.149-15.144-8.368 0-15.138 6.77-15.138 15.144zm-.807 39.873c0 8.357 6.776 15.149 15.149 15.149 8.363 0 15.144-6.793 15.144-15.149 0-8.374-6.781-15.155-15.144-15.155-8.368 0-15.149 6.781-15.149 15.155zm-39.071 0c0 8.357 6.787 15.149 15.149 15.149 8.368 0 15.161-6.793 15.161-15.149 0-8.374-6.793-15.155-15.161-15.155-8.357 0-15.149 6.781-15.149 15.155zm119.603 0c0 8.357 6.776 15.149 15.138 15.149 8.374 0 15.155-6.793 15.155-15.149 0-8.374-6.781-15.155-15.155-15.155-8.363 0-15.138 6.781-15.138 15.155zm-39.863 0c0 8.357 6.776 15.149 15.138 15.149 8.374 0 15.144-6.793 15.144-15.149 0-8.374-6.77-15.155-15.144-15.155-8.363 0-15.138 6.781-15.138 15.155zm79.731-39.873c0 8.368 6.776 15.161 15.144 15.161 8.374 0 15.144-6.793 15.144-15.161 0-8.374-6.77-15.144-15.144-15.144-8.368 0-15.144 6.77-15.144 15.144zm-79.731 79.735c0 8.368 6.776 15.138 15.138 15.138 8.374 0 15.144-6.77 15.144-15.138 0-8.374-6.77-15.144-15.144-15.144-8.363 0-15.138 6.77-15.138 15.144zm-40.669 0c0 8.368 6.776 15.138 15.149 15.138 8.363 0 15.144-6.77 15.144-15.138 0-8.374-6.781-15.144-15.144-15.144-8.368 0-15.149 6.77-15.149 15.144zm-39.071 0c0 8.368 6.787 15.138 15.149 15.138 8.368 0 15.161-6.77 15.161-15.138 0-8.374-6.793-15.144-15.161-15.144-8.357 0-15.149 6.77-15.149 15.144zm-39.874 0c0 8.368 6.787 15.138 15.161 15.138 8.363 0 15.138-6.77 15.138-15.138 0-8.374-6.776-15.144-15.138-15.144-8.368 0-15.161 6.77-15.161 15.144zm119.614 159.46c0 8.362 6.776 15.144 15.138 15.144 8.374 0 15.144-6.776 15.144-15.144s-6.77-15.144-15.144-15.144c-8.363-.006-15.138 6.775-15.138 15.144zm0-239.195c0 8.368 6.776 15.161 15.138 15.161 8.374 0 15.144-6.793 15.144-15.161 0-8.374-6.77-15.144-15.144-15.144-8.363 0-15.138 6.77-15.138 15.144zm39.863 0c0 8.368 6.776 15.161 15.138 15.161 8.374 0 15.155-6.793 15.155-15.161 0-8.374-6.781-15.144-15.155-15.144-8.363 0-15.138 6.77-15.138 15.144zm39.868 239.195c0 8.362 6.776 15.144 15.144 15.144 8.374 0 15.144-6.776 15.144-15.144s-6.77-15.144-15.144-15.144c-8.368-.006-15.144 6.775-15.144 15.144zM358.792 102.73c0 8.374 6.77 15.161 15.138 15.161s15.149-6.787 15.149-15.161c0-8.363-6.781-15.138-15.149-15.138-8.368 0-15.138 6.776-15.138 15.138zm-39.878 0c0 8.374 6.787 15.161 15.149 15.161 8.368 0 15.161-6.787 15.161-15.161 0-8.363-6.793-15.138-15.161-15.138-8.357 0-15.149 6.776-15.149 15.138zm-39.874 0c0 8.374 6.787 15.161 15.161 15.161 8.363 0 15.138-6.787 15.138-15.161 0-8.363-6.776-15.138-15.138-15.138-8.368 0-15.161 6.776-15.161 15.138zm-39.845 0c0 8.374 6.775 15.161 15.144 15.161s15.144-6.787 15.144-15.161c0-8.363-6.776-15.138-15.144-15.138s-15.144 6.776-15.144 15.138zm199.322 79.741c0 8.369 6.776 15.155 15.138 15.155 8.374 0 15.155-6.787 15.155-15.155 0-8.368-6.781-15.144-15.155-15.144-8.363 0-15.138 6.776-15.138 15.144zm-39.863 0c0 8.369 6.776 15.155 15.138 15.155 8.374 0 15.144-6.787 15.144-15.155 0-8.368-6.77-15.144-15.144-15.144-8.363 0-15.138 6.776-15.138 15.144zm39.863 39.868c0 8.362 6.776 15.144 15.138 15.144 8.374 0 15.155-6.776 15.155-15.144s-6.781-15.144-15.155-15.144c-8.363-.006-15.138 6.775-15.138 15.144zm-39.863-79.735c0 8.38 6.776 15.161 15.138 15.161 8.374 0 15.144-6.781 15.144-15.161 0-8.363-6.77-15.144-15.144-15.144-8.363 0-15.138 6.781-15.138 15.144zm-39.862 0c0 8.38 6.77 15.161 15.138 15.161s15.149-6.781 15.149-15.161c0-8.363-6.781-15.144-15.149-15.144-8.368 0-15.138 6.781-15.138 15.144zm-39.878 0c0 8.38 6.787 15.161 15.149 15.161 8.368 0 15.161-6.781 15.161-15.161 0-8.363-6.793-15.144-15.161-15.144-8.357 0-15.149 6.781-15.149 15.144zm-39.874 0c0 8.38 6.787 15.161 15.161 15.161 8.363 0 15.138-6.781 15.138-15.161 0-8.363-6.776-15.144-15.138-15.144-8.368 0-15.161 6.781-15.161 15.144zm79.752 39.867c0 8.369 6.77 15.155 15.138 15.155s15.149-6.787 15.149-15.155c0-8.368-6.781-15.144-15.149-15.144-8.368 0-15.138 6.776-15.138 15.144zm-39.878 0c0 8.369 6.787 15.155 15.149 15.155 8.368 0 15.161-6.787 15.161-15.155 0-8.368-6.793-15.144-15.161-15.144-8.357 0-15.149 6.776-15.149 15.144zm39.878 39.868c0 8.362 6.77 15.144 15.138 15.144s15.149-6.776 15.149-15.144c0-8.369-6.781-15.144-15.149-15.144-8.368 0-15.138 6.775-15.138 15.144z"/></svg>