<svg xmlns="http://www.w3.org/2000/svg" data-name="Layer 1" viewBox="0 0 24 24"><path d="M4.95 11.64l4.577-1.892a.428.428 0 00.265-.4V7H5.639a.6.6 0 010-1.2h4.153v-.742a2.637 2.637 0 01.778-1.881 2.684 2.684 0 012.518-.7 2.756 2.756 0 012.02 2.695V5.8h3.808l-1.323-1.326a.6.6 0 01.846-.849l2.346 2.343.007.011a.591.591 0 01-.027.856l-2.326 2.297a.6.6 0 01-.843-.854L18.895 7h-3.786v6.38l1.522-1.526a2.71 2.71 0 013.869.1 2.759 2.759 0 01-.215 3.753l-5.411 5.411a1.618 1.618 0 01-1.152.477H6.339a1.625 1.625 0 01-1.583-1.243L3.38 14.723a2.645 2.645 0 011.57-3.083zm-.4 2.8l1.376 5.63a.427.427 0 00.417.327h7.38a.425.425 0 00.3-.125l5.416-5.409a1.577 1.577 0 00.162-2.113 1.449 1.449 0 00-2.116-.05l-2.552 2.55a.6.6 0 01-1.024-.424V5.172a1.546 1.546 0 00-1.1-1.529 1.466 1.466 0 00-1.391.388 1.44 1.44 0 00-.421 1.026v4.295a1.624 1.624 0 01-1.006 1.505L5.409 12.75a1.449 1.449 0 00-.86 1.693z"/></svg>