<svg xmlns="http://www.w3.org/2000/svg" data-name="Your Icon" viewBox="0 0 90 90"><path d="M44.83 58.62V31.54L24.94 45.08zm-1.42-24.4v21.72l-16-10.86z"/><path d="M63.7 58.62V31.54L43.81 45.08zm-1.42-24.4v21.72l-16-10.86zM25.24 58a.71.71 0 00.76-.72v-24.4a.71.71 0 10-1.42 0v24.4a.71.71 0 00.66.72z"/><path d="M25.24 32.26a.61.61 0 01.61.61v11.69l18.88-12.84v12.84l18.88-12.84v26.72L44.73 45.59v12.85L25.86 45.59v11.69a.615.615 0 11-1.23 0v-24.4a.61.61 0 01.61-.62zm37.14 23.86V34L46.16 45zm-18.87 0V34L27.29 45zM44.6 90a45.54 45.54 0 006.4-.4l-.37-2.81a42.62 42.62 0 01-6 .37zM.4 51l2.81-.38a42.61 42.61 0 01-.38-6v-.1H0v.14A45.58 45.58 0 00.4 51zm86.76-5.59l2.84.02v-.05a45.64 45.64 0 00-.39-6.38l-2.81.4a42.71 42.71 0 01.37 5.93v.07zM39.44 3.2a42.68 42.68 0 015.9-.36h.1V.01h-.1a45.55 45.55 0 00-6.31.39z"/><path d="M45.22 87.51a42.56 42.56 0 0041.57-33.88.352.352 0 10-.69-.14 41.75 41.75 0 01-61.25 28 .356.356 0 10-.35.62 42.46 42.46 0 0020.72 5.4zM5 33a.35.35 0 00.34-.25 41.52 41.52 0 0139.88-29.4.355.355 0 100-.71A42.22 42.22 0 004.65 32.57a.35.35 0 00.23.44z"/><path d="M45 82.19A37.07 37.07 0 107.93 45.12 37.12 37.12 0 0045 82.19zm0-72a34.95 34.95 0 11-34.95 34.93A35 35 0 0145 10.17z"/></svg>