<svg xmlns="http://www.w3.org/2000/svg" viewBox="-146.321 -168.621 803.994 718.692"><path d="M263.584-6.969c0 13.824 11.213 25.054 25.048 25.054 13.807 0 25.014-11.236 25.014-25.054 0-13.818-11.213-25.031-25.014-25.031-13.836-.005-25.048 11.207-25.048 25.031zm0 65.906c0 13.829 11.213 25.037 25.048 25.037 13.807 0 25.014-11.213 25.014-25.037 0-13.841-11.213-25.054-25.014-25.054-13.836-.005-25.048 11.213-25.048 25.054zm65.9 0c0 13.829 11.195 25.037 25.031 25.037 13.836 0 25.026-11.213 25.026-25.037 0-13.841-11.195-25.054-25.026-25.054-13.836-.005-25.031 11.213-25.031 25.054zM0 124.826c0 13.847 11.213 25.054 25.031 25.054s25.037-11.213 25.037-25.054c0-13.824-11.218-25.048-25.037-25.048C11.212 99.778 0 111.002 0 124.826zm65.89 0c0 13.847 11.213 25.054 25.048 25.054 13.819 0 25.031-11.213 25.031-25.054 0-13.824-11.219-25.048-25.031-25.048-13.835-.005-25.048 11.224-25.048 25.048zm65.894 0c0 13.847 11.224 25.054 25.042 25.054 13.818 0 25.054-11.213 25.054-25.054 0-13.824-11.236-25.048-25.054-25.048-13.818 0-25.042 11.224-25.042 25.048zm65.905 0c0 13.847 11.196 25.054 25.037 25.054s25.025-11.213 25.025-25.054c0-13.824-11.19-25.048-25.025-25.048-13.835 0-25.037 11.224-25.037 25.048zm65.895 0c0 13.847 11.213 25.054 25.048 25.054 13.807 0 25.014-11.213 25.014-25.054 0-13.824-11.213-25.048-25.014-25.048-13.836-.005-25.048 11.224-25.048 25.048zm65.9 0c0 13.847 11.195 25.054 25.031 25.054 13.836 0 25.026-11.213 25.026-25.054 0-13.824-11.195-25.048-25.026-25.048-13.836-.005-25.031 11.224-25.031 25.048zm65.877 0c0 13.847 11.23 25.054 25.065 25.054 13.801 0 25.014-11.213 25.014-25.054 0-13.824-11.219-25.048-25.014-25.048-13.836-.005-25.065 11.224-25.065 25.048zM0 190.72c0 13.829 11.213 25.048 25.031 25.048s25.037-11.219 25.037-25.048c0-13.819-11.218-25.042-25.037-25.042C11.212 165.678 0 176.902 0 190.72zm65.89 0c0 13.829 11.213 25.048 25.048 25.048 13.819 0 25.031-11.219 25.031-25.048 0-13.819-11.219-25.042-25.031-25.042-13.835 0-25.048 11.224-25.048 25.042zm65.894 0c0 13.829 11.224 25.048 25.042 25.048 13.818 0 25.054-11.219 25.054-25.048 0-13.819-11.236-25.042-25.054-25.042-13.818 0-25.042 11.224-25.042 25.042zm65.905 0c0 13.829 11.196 25.048 25.037 25.048s25.025-11.219 25.025-25.048c0-13.819-11.19-25.042-25.025-25.042-13.835 0-25.037 11.224-25.037 25.042zm65.895 0c0 13.829 11.213 25.048 25.048 25.048 13.807 0 25.014-11.219 25.014-25.048 0-13.819-11.213-25.042-25.014-25.042-13.836 0-25.048 11.224-25.048 25.042zm65.9 0c0 13.829 11.195 25.048 25.031 25.048 13.836 0 25.026-11.219 25.026-25.048 0-13.819-11.195-25.042-25.026-25.042-13.836 0-25.031 11.224-25.031 25.042zm65.877 0c0 13.829 11.23 25.048 25.065 25.048 13.801 0 25.014-11.219 25.014-25.048 0-13.819-11.219-25.042-25.014-25.042-13.836 0-25.065 11.224-25.065 25.042zm65.906 0c0 13.829 11.219 25.048 25.037 25.048s25.048-11.219 25.048-25.048c0-13.819-11.23-25.042-25.048-25.042-13.818 0-25.037 11.224-25.037 25.042zM0 256.62c0 13.829 11.213 25.037 25.031 25.037s25.037-11.207 25.037-25.037c0-13.818-11.218-25.037-25.037-25.037C11.212 231.583 0 242.796 0 256.62zm65.89 0c0 13.829 11.213 25.037 25.048 25.037 13.819 0 25.031-11.207 25.031-25.037 0-13.818-11.219-25.037-25.031-25.037-13.835-.005-25.048 11.213-25.048 25.037zm65.894 0c0 13.829 11.224 25.037 25.042 25.037 13.818 0 25.054-11.207 25.054-25.037 0-13.818-11.236-25.037-25.054-25.037-13.818 0-25.042 11.213-25.042 25.037zm65.905 0c0 13.829 11.196 25.037 25.037 25.037s25.025-11.207 25.025-25.037c0-13.818-11.19-25.037-25.025-25.037-13.835 0-25.037 11.213-25.037 25.037zm65.895 0c0 13.829 11.213 25.037 25.048 25.037 13.807 0 25.014-11.207 25.014-25.037 0-13.818-11.213-25.037-25.014-25.037-13.836-.005-25.048 11.213-25.048 25.037zm65.9 0c0 13.829 11.195 25.037 25.031 25.037 13.836 0 25.026-11.207 25.026-25.037 0-13.818-11.195-25.037-25.026-25.037-13.836-.005-25.031 11.213-25.031 25.037zm65.877 0c0 13.829 11.23 25.037 25.065 25.037 13.801 0 25.014-11.207 25.014-25.037 0-13.818-11.219-25.037-25.014-25.037-13.836-.005-25.065 11.213-25.065 25.037zm-131.777 65.889c0 13.835 11.213 25.054 25.048 25.054 13.807 0 25.014-11.224 25.014-25.054 0-13.819-11.213-25.026-25.014-25.026-13.836-.006-25.048 11.207-25.048 25.026zm65.9 0c0 13.835 11.195 25.054 25.031 25.054 13.836 0 25.026-11.224 25.026-25.054 0-13.819-11.195-25.026-25.026-25.026-13.836-.006-25.031 11.207-25.031 25.026zm-65.9 65.905c0 13.836 11.213 25.037 25.048 25.037 13.807 0 25.014-11.207 25.014-25.037 0-13.824-11.213-25.025-25.014-25.025-13.836-.005-25.048 11.202-25.048 25.026z"/></svg>