<svg xmlns="http://www.w3.org/2000/svg" viewBox="-146.507 -166.733 805.015 708.321"><path d="M.002 224.284q0 29.429 21.715 51.143 21.715 21.714 51.428 21.714h106.857q-6.286 17.143-6.286 36.571 0 34.857 23.286 54t59 19.143q10.857 0 19.857-5t15.714-14.143q6.714-9.143 11.572-18 4.858-8.857 10.572-20.571 5.714-11.714 9.428-17.714 10-15.715 28.572-36.857.572-.857 4-4.857t5.428-6.143q2-2.143 5.857-6.143t6.857-6.428q3-2.428 6.428-5.143t6.714-4q3.286-1.285 6.143-1.286h82.286q15.143 0 25.857-10.714 10.714-10.714 10.714-25.857V41.142q0-15.143-10.714-25.857Q490.573 4.571 475.43 4.571h-82.286q-16.857 0-63.714-16.857Q275.144-32 238.858-32q-40.572 0-65.714 22.143-25.142 22.143-24.857 62.143l.286 1.428q-17.429 21.714-17.429 50.857 0 6.286.857 12.286-9.428 16.286-10.572 34H73.144q-30 0-51.572 21.714Q0 194.285 0 224.285zm36.572-.286q0-14.857 10.857-25.714t25.715-10.857h94.571q-4.286-4.857-7.143-13.572t-2.857-15.857q0-19.714 15.143-34-5.143-9.143-5.143-19.714 0-10.571 5-21t13.572-15q-1.143-6.857-1.143-16 0-24.286 13.857-36Q212.86 4.57 237.717 4.57q24 0 52.286 9.143t55.428 18.286q27.142 9.143 47.714 9.143h9.143v182.857h-9.143q-10 0-19.286 3.429-9.286 3.429-17.857 10.572-8.571 7.143-14.286 13.143-5.715 6-14 15.429-.572.857-1 1.286-.428.429-1.143 1.286-.715.857-1.286 1.428-20.572 23.143-32 41.429-4 6.285-10.857 19.428-.286.857-3 6.428t-5.286 10.286q-2.572 4.715-5.714 10.143-3.142 5.428-6.143 8.715t-5.286 3.285q-20.286 0-33-8.714-12.714-8.714-12.714-27.857 0-12.286 4.286-24.143 4.286-11.857 9.428-19.428 5.142-7.571 9.428-15.714 4.286-8.143 4.286-13.857H73.144q-14.285 0-25.428-11t-11.143-25.571zM438.859 59.427q0-7.428 5.428-12.857 5.428-5.429 12.857-5.428 7.429.001 12.857 5.428 5.428 5.427 5.428 12.857t-5.428 12.857q-5.428 5.427-12.857 5.428-7.429.001-12.857-5.428-5.428-5.429-5.428-12.857z"/></svg>